<?xml version="1.0" encoding="UTF-8" standalone="no"?>
<svg width="43px" height="43px" viewBox="0 0 43 43" version="1.1" xmlns="http://www.w3.org/2000/svg" xmlns:xlink="http://www.w3.org/1999/xlink">
    <!-- Generator: Sketch 39 (31667) - http://www.bohemiancoding.com/sketch -->
    <title>Combined Shape</title>
    <desc>Created with Sketch.</desc>
    <defs></defs>
    <g id="全员营销系统首页" stroke="none" stroke-width="1" fill="none" fill-rule="evenodd">
        <g id="营销系统/首页" transform="translate(-30.000000, -791.000000)" fill="#FFFFFF">
            <g id="正在进行中的任务" transform="translate(10.000000, 758.000000)">
                <g id="服务号任务">
                    <g id="微信公众号任务" transform="translate(20.000000, 33.000000)">
                        <path d="M21.432889,42.8657779 C33.2699467,42.8657779 42.8657779,33.2699467 42.8657779,21.432889 C42.8657779,9.59583124 33.2699467,0 21.432889,0 C9.59583124,0 0,9.59583124 0,21.432889 C0,33.2699467 9.59583124,42.8657779 21.432889,42.8657779 Z M17.3609361,8.00913657 C10.910998,8.00913657 5.62866386,12.4025889 5.62866386,17.9849463 C5.62866386,21.2071306 7.38419807,23.8525236 10.3221395,25.9079834 L9.14994309,29.4358093 L13.2517265,27.3797633 C14.7188651,27.6682077 15.8948234,27.9677424 17.360936,27.9677424 C17.7293573,27.9677424 18.0930885,27.9510337 18.4531066,27.9230882 C18.2261227,27.1378784 18.091232,26.3173458 18.091232,25.4614905 C18.0930885,20.3372536 22.4934784,16.1768433 28.0643058,16.1768433 C28.4457227,16.1768433 28.8206419,16.2065964 29.1974175,16.2475375 C28.182439,11.5201561 23.1298736,8.00913657 17.3609361,8.00913657 Z M28.8075974,16.8085483 C23.2247515,16.8085483 18.8308106,20.6335639 18.8308106,25.3219096 C18.8308106,30.0237884 23.226608,33.8343426 28.8075974,33.8343426 C29.977009,33.8343426 31.1547749,33.542234 32.3269713,33.2482689 L35.5440257,35.0121574 L34.6620814,32.0797856 C37.0176621,30.3103763 38.7750529,27.9677913 38.7750529,25.3219585 C38.7750528,20.6317073 34.0797695,16.8085483 28.8075974,16.8085483 Z M32.0255801,23.8525237 C31.4469324,23.8525237 30.8589533,23.2729477 30.8589533,22.6793013 C30.8589533,22.0960123 31.4450759,21.5080821 32.0255801,21.5080821 C32.9075732,21.5080821 33.493647,22.0960124 33.493647,22.6793013 C33.493647,23.2729477 32.9075243,23.8525237 32.0255801,23.8525237 Z M25.5729061,23.8525237 C24.98864,23.8525237 24.3988532,23.2729477 24.3988532,22.6793013 C24.3988532,22.0960123 24.98864,21.5080821 25.5729061,21.5080821 C26.4622764,21.5080821 27.040973,22.0960124 27.040973,22.6793013 C27.0409241,23.2729477 26.4622764,23.8525237 25.5729061,23.8525237 Z M21.7576617,15.9285095 C20.881287,15.9285095 19.9993428,15.3396021 19.9993428,14.4622991 C19.9993428,13.5770815 20.8794305,12.9970659 21.7576617,12.9970659 C22.6441984,12.9970659 23.226608,13.5789869 23.226608,14.4622991 C23.226608,15.3396021 22.6441984,15.9285095 21.7576617,15.9285095 Z M13.5484765,15.9285095 C12.6683399,15.9285095 11.780826,15.3396021 11.780826,14.4622991 C11.780826,13.5789381 12.6683398,12.9970659 13.5484765,12.9970659 C14.4285642,12.9970659 15.0127814,13.5771304 15.0127814,14.4622991 C15.0127814,15.3396021 14.4285642,15.9285095 13.5484765,15.9285095 Z" id="Combined-Shape"></path>
                    </g>
                </g>
            </g>
        </g>
    </g>
</svg>