<?xml version="1.0" encoding="UTF-8" standalone="no"?>
<svg width="43px" height="43px" viewBox="0 0 43 43" version="1.1" xmlns="http://www.w3.org/2000/svg" xmlns:xlink="http://www.w3.org/1999/xlink">
    <!-- Generator: Sketch 39 (31667) - http://www.bohemiancoding.com/sketch -->
    <title>广告管理</title>
    <desc>Created with Sketch.</desc>
    <defs></defs>
    <g id="全员营销系统首页" stroke="none" stroke-width="1" fill="none" fill-rule="evenodd">
        <g id="营销系统/首页" transform="translate(-30.000000, -921.000000)" fill="#FFFFFF">
            <g id="正在进行中的任务" transform="translate(10.000000, 758.000000)">
                <g id="品牌宣传任务" transform="translate(0.000000, 130.000000)">
                    <g id="广告管理" transform="translate(20.000000, 33.000000)">
                        <g id="Group" transform="translate(0.026736, 0.026736)">
                            <path d="M21.484375,42.9501323 C9.62913288,42.9501323 0.018617691,33.3395683 0.018617691,21.484375 C0.018617691,9.62918172 9.62918172,0.018617691 21.484375,0.018617691 C33.3395683,0.018617691 42.9501323,9.62918172 42.9501323,21.484375 C42.9501323,33.3395683 33.3395683,42.9501323 21.484375,42.9501323 L21.484375,42.9501323 L21.484375,42.9501323 Z M15.3974841,30.7326247 L19.9025719,29.5406906 L14.7003612,28.1641306 L15.3974841,30.7326247 L15.3974841,30.7326247 L15.3974841,30.7326247 Z M11.3947802,15.98048 L13.1959457,22.6193433 L13.8920915,20.0536828 L13.0418546,16.9196832 L14.8741412,16.4347409 L15.275931,14.953825 L11.3947802,15.98048 L11.3947802,15.98048 L11.3947802,15.98048 Z M26.3328211,12.0279021 L22.5002329,13.0419035 L25.0982848,13.7294995 L25.3818925,13.6545059 L25.4258138,13.8162185 L26.9258812,14.2131716 L26.3328211,12.0279021 L26.3328211,12.0279021 L26.3328211,12.0279021 Z M28.4202325,15.2555093 L28.4100216,15.2932748 L16.6973895,12.1939139 L16.3491944,13.476622 L16.3713261,13.4825824 L13.0648168,25.6690178 L13.0426363,25.6630574 L12.7048963,26.9081955 L14.487692,27.3801422 L14.4997594,27.4238681 L21.2013535,29.196746 L21.2778128,29.1768129 L27.6429373,30.8611154 L28.6275275,27.2317671 L28.6532256,27.2250739 L29.5546634,23.9020025 L29.5427425,23.8586674 L31.6455923,16.1088729 L28.4202325,15.2555093 L28.4202325,15.2555093 L28.4202325,15.2555093 Z M15.2219942,22.7620998 L17.6582846,13.7825568 L29.9984203,17.0477342 L27.562081,26.0276191 L15.2219942,22.7620998 L15.2219942,22.7620998 L15.2219942,22.7620998 Z M20.0754725,16.3960471 C19.5374728,16.2538768 18.9844255,16.5690942 18.8402033,17.1004006 C18.6961765,17.6317071 19.0153023,18.1778657 19.553302,18.3202313 C20.0914971,18.4627924 20.6445444,18.1471842 20.7885712,17.6160732 C20.9327934,17.0847668 20.6134722,16.5384128 20.0754725,16.3960471 L20.0754725,16.3960471 L20.0754725,16.3960471 Z M25.8361534,18.4605451 L22.9714468,20.9556579 L21.8880213,19.0854592 L19.7602551,21.0634337 L18.9418233,19.6805713 L17.0892615,21.7436037 L26.553356,24.2482434 L25.8361534,18.4605451 L25.8361534,18.4605451 L25.8361534,18.4605451 Z" id="Shape"></path>
                        </g>
                    </g>
                </g>
            </g>
        </g>
    </g>
</svg>